<svg width="95" height="37" viewBox="0 0 95 37" fill="none" xmlns="http://www.w3.org/2000/svg">
<path d="M7.67979 23.0116C8.22393 22.9066 8.76807 22.795 9.3055 22.6571V10.9585L18.7978 4.86623L28.3102 10.8075V20.2903L32.7775 19.5328L32.7708 13.138H36.4253C36.956 13.138 37.3994 12.8098 37.5472 12.3108C37.695 11.8119 37.5069 11.3064 37.0568 11.0175L19.8793 0.310191C19.2143 -0.103397 18.3611 -0.103397 17.696 0.310191L0.545466 11.0175C0.0953727 11.3064 -0.106161 11.8053 0.0550667 12.3043C0.196141 12.8032 0.646231 13.1249 1.17694 13.1249H4.86502L4.85159 23.2742L5.2345 23.2611C6.06079 23.2348 6.87365 23.1495 7.67979 23.0116Z" fill="white"/>
<path d="M32.8228 21.8196V26.733C27.3269 26.46 23.9504 31.1621 21.2346 37H16.2709V24.4876C15.0781 25.6323 11.5457 30.2375 4.77441 30.2375V25.3241C10.0593 25.6499 13.9771 23.4838 16.2709 18.5H21.2346V29.1192C21.4365 28.8903 25.0423 21.8196 32.8228 21.8196Z" fill="url(#paint0_linear_2_6685)"/>
<path d="M51.1748 16.9277C51.8369 16.9277 52.4667 17.1042 53.0635 17.457C53.6647 17.8099 54.1527 18.3659 54.5273 19.124C54.9063 19.8819 55.0957 20.8662 55.0957 22.0771C55.0957 23.236 54.9153 24.1975 54.5537 24.9599C54.1965 25.7221 53.7173 26.2904 53.1162 26.665C52.5195 27.0396 51.8638 27.2274 51.1494 27.2275C50.6789 27.2275 50.258 27.1505 49.8877 26.998C49.5218 26.8412 49.2076 26.6299 48.9463 26.3642C48.6894 26.0942 48.4919 25.7888 48.3525 25.4492H48.2998V30.8603H44.6924V17.0585H48.2734V18.8105H48.3525C48.4832 18.4708 48.6742 18.159 48.9268 17.8759C49.1794 17.5884 49.4935 17.3593 49.8682 17.1894C50.2427 17.0152 50.6783 16.9277 51.1748 16.9277ZM72.2041 27.2958H68.5986V15.9658H72.2041V27.2958ZM78.4209 16.9277C79.8717 16.9277 81.0161 17.2288 81.8525 17.83C82.6931 18.4312 83.1351 19.2633 83.1787 20.3261H79.8594C79.8419 20.1214 79.7698 19.9449 79.6436 19.7968C79.5172 19.6487 79.3537 19.5354 79.1533 19.457C78.9574 19.3742 78.7395 19.333 78.5 19.3329C78.1907 19.3329 77.9243 19.3896 77.7021 19.5029C77.4802 19.6161 77.3717 19.7773 77.376 19.9863C77.3716 20.1344 77.4347 20.272 77.5654 20.3984C77.7006 20.5246 77.9597 20.6227 78.3428 20.6923L80.3818 21.0585C81.4099 21.2459 82.1748 21.5614 82.6758 22.0058C83.1809 22.4457 83.436 23.0359 83.4404 23.7763C83.4361 24.4908 83.2224 25.1124 82.7998 25.6396C82.3816 26.1622 81.8085 26.5669 81.0811 26.8544C80.3579 27.1376 79.5324 27.2792 78.6045 27.2792C77.0712 27.2792 75.8708 26.9659 75.0039 26.3388C74.1414 25.7115 73.6598 24.8834 73.5596 23.8554H77.1406C77.1886 24.1733 77.3457 24.4195 77.6113 24.5937C77.8814 24.7634 78.2215 24.8486 78.6309 24.8486C78.9617 24.8485 79.2339 24.7918 79.4473 24.6786C79.665 24.5654 79.7758 24.4042 79.7803 24.1952C79.7759 24.0036 79.6805 23.8505 79.4932 23.7372C79.3102 23.624 79.0227 23.5325 78.6309 23.4628L76.8525 23.1493C75.8289 22.9707 75.0624 22.6307 74.5527 22.1298C74.043 21.6288 73.7906 20.9838 73.7949 20.1952C73.7906 19.4983 73.9735 18.9083 74.3438 18.4247C74.7184 17.9368 75.2517 17.5661 75.9443 17.3134C76.6413 17.0564 77.467 16.9277 78.4209 16.9277ZM89.5537 16.9277C90.3117 16.9277 90.9981 17.0459 91.6123 17.2812C92.2263 17.5164 92.751 17.8581 93.1865 18.3066C93.6222 18.751 93.9581 19.2916 94.1934 19.9277C94.4285 20.5636 94.5459 21.28 94.5459 22.0771V22.914H88.0117V23.0712C88.0118 23.3935 88.0789 23.6809 88.2139 23.9335C88.3489 24.1862 88.5432 24.3845 88.7959 24.5283C89.0484 24.6718 89.3531 24.744 89.71 24.7441C89.9581 24.7441 90.185 24.7092 90.3896 24.6396C90.5987 24.5699 90.7777 24.4694 90.9258 24.3388C91.0739 24.2038 91.1832 24.0427 91.2529 23.8554H94.5459C94.4326 24.5523 94.1647 25.1578 93.7422 25.6718C93.3196 26.1815 92.7595 26.5781 92.0625 26.8613C91.3699 27.14 90.5596 27.2792 89.6318 27.2792C88.5602 27.2792 87.6368 27.0744 86.8613 26.665C86.0902 26.2511 85.4954 25.6587 85.0771 24.8876C84.6633 24.1121 84.4561 23.1839 84.4561 22.1034C84.4561 21.0667 84.6658 20.1601 85.084 19.3847C85.5022 18.6095 86.0923 18.0063 86.8545 17.5751C87.6169 17.1438 88.5168 16.9277 89.5537 16.9277ZM60.2148 22.705C60.2192 23.2016 60.3454 23.5918 60.5938 23.8749C60.8464 24.158 61.1994 24.2997 61.6523 24.2997C61.9527 24.2997 62.212 24.2364 62.4297 24.1103C62.6517 23.9797 62.8218 23.7965 62.9395 23.5615C63.0614 23.3219 63.1206 23.0361 63.1162 22.705V17.0585H66.7236V27.0966H63.2988V25.1884H63.1943C62.9765 25.8287 62.5953 26.3298 62.0508 26.6913C61.5063 27.0484 60.8595 27.2274 60.1104 27.2275C59.4089 27.2275 58.7947 27.0655 58.2676 26.7431C57.7448 26.4207 57.3368 25.9764 57.0449 25.4101C56.7575 24.8438 56.6118 24.1946 56.6074 23.4628V17.0585H60.2148V22.705ZM49.8154 19.6992C49.4846 19.6992 49.1994 19.7947 48.96 19.9863C48.7247 20.1736 48.5418 20.4464 48.4111 20.8036C48.2849 21.1564 48.2217 21.5808 48.2217 22.0771C48.2217 22.565 48.2848 22.9884 48.4111 23.3456C48.5418 23.6984 48.7248 23.9729 48.96 24.1689C49.1994 24.3604 49.4846 24.4559 49.8154 24.456C50.1465 24.456 50.4283 24.363 50.6592 24.1757C50.8944 23.984 51.0724 23.7112 51.1943 23.3583C51.3207 23.0011 51.3848 22.5737 51.3848 22.0771C51.3847 21.5807 51.3206 21.1564 51.1943 20.8036C51.0724 20.4464 50.8944 20.1736 50.6592 19.9863C50.4283 19.7946 50.1465 19.6992 49.8154 19.6992ZM89.6318 19.4638C89.34 19.4638 89.0721 19.5269 88.8281 19.6533C88.5842 19.7752 88.3883 19.9452 88.2402 20.163C88.0965 20.3808 88.0204 20.6358 88.0117 20.9277H91.2266C91.2222 20.6401 91.1477 20.3867 91.0039 20.1689C90.8645 19.9469 90.675 19.7751 90.4355 19.6533C90.2003 19.5269 89.9324 19.4638 89.6318 19.4638Z" fill="url(#paint1_linear_2_6685)"/>
<path d="M46.507 12.1228C46.0469 12.1228 45.6486 12.0095 45.3121 11.7828C44.9756 11.5494 44.7113 11.2335 44.519 10.8352C44.3336 10.43 44.2409 9.98026 44.2409 9.48584C44.2409 8.94335 44.3404 8.47639 44.5396 8.08497C44.7456 7.69355 45.0203 7.39141 45.3636 7.17853C45.707 6.96565 46.0881 6.85921 46.507 6.85921C46.8091 6.85921 47.0838 6.92102 47.331 7.04462C47.5851 7.16823 47.798 7.3399 47.9696 7.55965C48.1413 7.77939 48.2615 8.0369 48.3302 8.33218L48.0726 8.41459V4.85062H49.0718V12.0301H48.0726V10.5674L48.3714 10.5777C48.2821 10.9073 48.1482 11.1889 47.9696 11.4223C47.7911 11.6489 47.5748 11.824 47.3207 11.9477C47.0735 12.0644 46.8023 12.1228 46.507 12.1228ZM46.713 11.1957C47.0083 11.1957 47.2623 11.1236 47.4752 10.9794C47.695 10.8352 47.8632 10.6361 47.9799 10.382C48.1035 10.121 48.1654 9.82232 48.1654 9.48584C48.1654 9.14936 48.1035 8.85408 47.9799 8.6C47.8632 8.33905 47.695 8.13991 47.4752 8.00257C47.2623 7.85836 47.0083 7.78626 46.713 7.78626C46.4246 7.78626 46.1705 7.85836 45.9507 8.00257C45.731 8.13991 45.5593 8.33905 45.4357 8.6C45.319 8.85408 45.2606 9.14936 45.2606 9.48584C45.2606 9.82232 45.319 10.121 45.4357 10.382C45.5593 10.6361 45.731 10.8352 45.9507 10.9794C46.1705 11.1236 46.4246 11.1957 46.713 11.1957ZM52.3577 12.1228C51.9457 12.1228 51.5886 12.0541 51.2865 11.9168C50.9843 11.7794 50.7337 11.5906 50.5345 11.3502C50.3354 11.103 50.1843 10.8249 50.0813 10.5159C49.9852 10.2 49.9371 9.87039 49.9371 9.52704C49.9371 9.18369 49.9852 8.85408 50.0813 8.53819C50.1775 8.21544 50.3217 7.93046 50.5139 7.68325C50.7062 7.42917 50.9466 7.23003 51.235 7.08582C51.5303 6.93475 51.877 6.85921 52.2753 6.85921C52.6736 6.85921 53.017 6.92788 53.3054 7.06522C53.5938 7.1957 53.8307 7.38111 54.0161 7.62145C54.2015 7.85493 54.3389 8.11931 54.4281 8.41459C54.5243 8.70987 54.5723 9.02232 54.5723 9.35193C54.5723 9.38627 54.5689 9.4515 54.562 9.54764C54.562 9.63691 54.5552 9.72275 54.5414 9.80515H50.9466C50.9672 10.2584 51.1045 10.6086 51.3586 10.8558C51.6195 11.0961 51.9629 11.2163 52.3886 11.2163C52.677 11.2163 52.9346 11.1717 53.1612 11.0824C53.3878 10.9863 53.5972 10.8386 53.7895 10.6395L54.4075 11.2781C54.2084 11.4773 54.0024 11.6386 53.7895 11.7622C53.5835 11.8859 53.3637 11.9751 53.1303 12.0301C52.9037 12.0919 52.6461 12.1228 52.3577 12.1228ZM53.5732 9.30043C53.5869 9.24549 53.5938 9.19056 53.5938 9.13562C53.6007 9.08069 53.6041 9.02575 53.6041 8.97081C53.6041 8.81287 53.5766 8.65837 53.5217 8.50729C53.4667 8.35622 53.3843 8.22231 53.2745 8.10557C53.1646 7.98197 53.0273 7.88583 52.8625 7.81716C52.7045 7.74162 52.5191 7.70385 52.3062 7.70385C52.0247 7.70385 51.7843 7.76909 51.5852 7.89956C51.3861 8.02317 51.2315 8.18798 51.1217 8.39399C51.0187 8.6 50.9569 8.82317 50.9363 9.06352H53.9028L53.5732 9.30043ZM55.4277 12.0301V6.95192H56.4474V8.26008L56.2311 8.33218C56.2929 8.06437 56.3788 7.83776 56.4886 7.65235C56.5985 7.46694 56.7255 7.31587 56.8697 7.19913C57.0208 7.08239 57.1822 6.99655 57.3539 6.94162C57.5255 6.88668 57.7007 6.85921 57.8792 6.85921C58.1745 6.85921 58.4389 6.91758 58.6723 7.03432C58.9127 7.14419 59.1118 7.3193 59.2698 7.55965C59.4346 7.79312 59.5444 8.10214 59.5994 8.48669L59.0225 8.6C59.1256 8.20171 59.2595 7.87553 59.4243 7.62145C59.5959 7.36737 59.802 7.17853 60.0423 7.05492C60.2895 6.92445 60.5711 6.85921 60.8869 6.85921C61.3127 6.85921 61.6526 6.95535 61.9067 7.14763C62.1676 7.3399 62.3565 7.59055 62.4732 7.89956C62.5968 8.20171 62.6586 8.53476 62.6586 8.89871V12.0301H61.6595V9.14592C61.6595 8.85064 61.6251 8.6 61.5565 8.39399C61.4878 8.18111 61.3814 8.01974 61.2372 7.90986C61.0929 7.79312 60.9007 7.73476 60.6603 7.73476C60.4268 7.73476 60.2277 7.79656 60.0629 7.92016C59.8981 8.0369 59.7711 8.21544 59.6818 8.45579C59.5994 8.69613 59.5582 8.99485 59.5582 9.35193V12.0301H58.5487V9.08412C58.5487 8.6309 58.4629 8.29442 58.2912 8.07467C58.1264 7.84806 57.8861 7.73476 57.5702 7.73476C57.3367 7.73476 57.1341 7.79656 56.9625 7.92016C56.7976 8.0369 56.6706 8.21544 56.5813 8.45579C56.4921 8.69613 56.4474 8.99485 56.4474 9.35193V12.0301H55.4277ZM67.0158 12.0301L66.9334 11.0927V8.83691C66.9334 8.47982 66.8304 8.20514 66.6244 8.01287C66.4184 7.82059 66.1197 7.72445 65.7282 7.72445C65.4536 7.72445 65.1892 7.77939 64.9351 7.88926C64.6879 7.99913 64.451 8.17768 64.2244 8.42489L63.596 7.77596C63.8982 7.46008 64.2312 7.23003 64.5952 7.08582C64.966 6.93475 65.3677 6.85921 65.8003 6.85921C66.4802 6.85921 67.0055 7.03432 67.3763 7.38454C67.754 7.72789 67.9429 8.21201 67.9429 8.83691V12.0301H67.0158ZM65.378 12.1228C65.0003 12.1228 64.6673 12.0541 64.3789 11.9168C64.0905 11.7794 63.8673 11.5906 63.7094 11.3502C63.5514 11.103 63.4724 10.818 63.4724 10.4953C63.4724 10.2137 63.5308 9.97339 63.6475 9.77425C63.7643 9.56824 63.9154 9.4103 64.1008 9.30043C64.2724 9.19056 64.4682 9.11502 64.6879 9.07382C64.9145 9.02575 65.1549 9.00172 65.4089 9.00172H67.0261V9.76395H65.5531C65.4158 9.76395 65.2716 9.77769 65.1205 9.80515C64.9763 9.82575 64.8527 9.87382 64.7497 9.94936C64.6673 10.0112 64.6021 10.0901 64.554 10.1863C64.5059 10.2755 64.4819 10.382 64.4819 10.5056C64.4819 10.7459 64.5746 10.9382 64.76 11.0824C64.9454 11.2266 65.1926 11.2987 65.5016 11.2987C65.7626 11.2987 65.9995 11.2404 66.2124 11.1236C66.4321 11 66.6072 10.8352 66.7377 10.6292C66.8682 10.4163 66.9334 10.176 66.9334 9.90816L67.2939 10.382C67.2321 10.7391 67.1119 11.0515 66.9334 11.3193C66.7549 11.5803 66.5317 11.7794 66.2639 11.9168C66.0029 12.0541 65.7076 12.1228 65.378 12.1228ZM68.9728 12.0301V6.95192H69.9926V8.05407L69.7866 8.11587C69.8758 7.83433 70.0029 7.60428 70.1677 7.42574C70.3393 7.24033 70.5385 7.09956 70.7651 7.00342C70.9986 6.90728 71.2492 6.85921 71.517 6.85921C72.0801 6.85921 72.5196 7.02402 72.8355 7.35364C73.1582 7.67639 73.3196 8.15021 73.3196 8.7751V12.0301H72.3102V9.14592C72.3102 8.65837 72.2209 8.30128 72.0424 8.07467C71.8707 7.84806 71.6029 7.73476 71.2389 7.73476C70.9642 7.73476 70.7342 7.79656 70.5488 7.92016C70.3703 8.04377 70.2329 8.23948 70.1368 8.50729C70.0406 8.7751 69.9926 9.11502 69.9926 9.52704V12.0301H68.9728ZM76.3864 12.1228C75.9263 12.1228 75.5281 12.0095 75.1916 11.7828C74.8551 11.5494 74.5907 11.2335 74.3984 10.8352C74.213 10.43 74.1203 9.98026 74.1203 9.48584C74.1203 8.94335 74.2199 8.47639 74.419 8.08497C74.6251 7.69355 74.8997 7.39141 75.2431 7.17853C75.5864 6.96565 75.9675 6.85921 76.3864 6.85921C76.6886 6.85921 76.9633 6.92102 77.2105 7.04462C77.4646 7.16823 77.6774 7.3399 77.8491 7.55965C78.0208 7.77939 78.141 8.0369 78.2096 8.33218L77.9521 8.41459V4.85062H78.9513V12.0301H77.9521V10.5674L78.2508 10.5777C78.1616 10.9073 78.0276 11.1889 77.8491 11.4223C77.6706 11.6489 77.4543 11.824 77.2002 11.9477C76.953 12.0644 76.6817 12.1228 76.3864 12.1228ZM76.5924 11.1957C76.8877 11.1957 77.1418 11.1236 77.3547 10.9794C77.5744 10.8352 77.7427 10.6361 77.8594 10.382C77.983 10.121 78.0448 9.82232 78.0448 9.48584C78.0448 9.14936 77.983 8.85408 77.8594 8.6C77.7427 8.33905 77.5744 8.13991 77.3547 8.00257C77.1418 7.85836 76.8877 7.78626 76.5924 7.78626C76.304 7.78626 76.05 7.85836 75.8302 8.00257C75.6105 8.13991 75.4388 8.33905 75.3152 8.6C75.1984 8.85408 75.1401 9.14936 75.1401 9.48584C75.1401 9.82232 75.1984 10.121 75.3152 10.382C75.4388 10.6361 75.6105 10.8352 75.8302 10.9794C76.05 11.1236 76.304 11.1957 76.5924 11.1957Z" fill="white"/>
<defs>
<linearGradient id="paint0_linear_2_6685" x1="122.022" y1="-71.6355" x2="5.40099" y2="48.1716" gradientUnits="userSpaceOnUse">
<stop stop-color="white"/>
<stop offset="1" stop-color="#DD1F26"/>
</linearGradient>
<linearGradient id="paint1_linear_2_6685" x1="44.6924" y1="23.413" x2="94.5459" y2="23.413" gradientUnits="userSpaceOnUse">
<stop stop-color="#E97156"/>
<stop offset="1" stop-color="#E01E26"/>
</linearGradient>
</defs>
</svg>
