<svg width="11" height="11" viewBox="0 0 11 11" fill="none" xmlns="http://www.w3.org/2000/svg">
<path d="M5.29021 0C2.36822 0 2.87038e-08 2.36822 2.87038e-08 5.28966C-7.23438e-05 5.9844 0.136714 6.67235 0.402546 7.31422C0.668378 7.95609 1.05805 8.5393 1.5493 9.03056C2.04056 9.52181 2.62378 9.91148 3.26565 10.1773C3.90752 10.4431 4.59547 10.5799 5.29021 10.5799C8.21109 10.5799 10.5799 8.21164 10.5799 5.28966C10.5799 2.36822 8.21109 0 5.29021 0ZM5.78391 1.90979C6.29965 1.90979 6.45118 2.20898 6.45118 2.55116C6.45118 2.97819 6.10955 3.37326 5.52604 3.37326C5.03785 3.37326 4.80532 3.12806 4.81965 2.72197C4.81965 2.37979 5.10562 1.90979 5.78391 1.90979ZM4.4626 8.45794C4.10995 8.45794 3.85263 8.2436 4.09893 7.30413L4.50282 5.63734C4.5728 5.37065 4.58437 5.26376 4.50282 5.26376C4.39758 5.26376 3.93969 5.44779 3.6697 5.62963L3.49393 5.34145C4.35074 4.62569 5.33594 4.20583 5.75746 4.20583C6.1101 4.20583 6.16851 4.62239 5.99274 5.26376L5.52989 7.01596C5.44779 7.32562 5.48306 7.43252 5.56516 7.43252C5.67095 7.43252 6.01698 7.30468 6.3575 7.03634L6.55697 7.30413C5.7233 8.13725 4.81469 8.45794 4.4626 8.45794Z" fill="#65B4E4"/>
</svg>
