<svg width="17" height="17" viewBox="0 0 17 17" fill="none" xmlns="http://www.w3.org/2000/svg">
<path d="M4.5 9V15.75C4.5 15.9489 4.42098 16.1397 4.28033 16.2803C4.13968 16.421 3.94891 16.5 3.75 16.5H0.75C0.551088 16.5 0.360322 16.421 0.21967 16.2803C0.0790176 16.1397 0 15.9489 0 15.75V9C0 8.80109 0.0790176 8.61032 0.21967 8.46967C0.360322 8.32902 0.551088 8.25 0.75 8.25H3.75C3.94891 8.25 4.13968 8.32902 4.28033 8.46967C4.42098 8.61032 4.5 8.80109 4.5 9ZM9.75 0H6.75C6.55109 0 6.36032 0.0790176 6.21967 0.21967C6.07902 0.360322 6 0.551088 6 0.75V15.75C6 15.9489 6.07902 16.1397 6.21967 16.2803C6.36032 16.421 6.55109 16.5 6.75 16.5H9.75C9.94891 16.5 10.1397 16.421 10.2803 16.2803C10.421 16.1397 10.5 15.9489 10.5 15.75V0.75C10.5 0.551088 10.421 0.360322 10.2803 0.21967C10.1397 0.0790176 9.94891 0 9.75 0ZM15.75 3.75H12.75C12.5511 3.75 12.3603 3.82902 12.2197 3.96967C12.079 4.11032 12 4.30109 12 4.5V15.75C12 15.9489 12.079 16.1397 12.2197 16.2803C12.3603 16.421 12.5511 16.5 12.75 16.5H15.75C15.9489 16.5 16.1397 16.421 16.2803 16.2803C16.421 16.1397 16.5 15.9489 16.5 15.75V4.5C16.5 4.30109 16.421 4.11032 16.2803 3.96967C16.1397 3.82902 15.9489 3.75 15.75 3.75Z" fill="#1174BA"/>
</svg>
