<svg width="20" height="20" viewBox="0 0 20 20" fill="none" xmlns="http://www.w3.org/2000/svg">
<path fill-rule="evenodd" clip-rule="evenodd" d="M5.94206 8.36205C6.93546 10.8459 8.41846 14.5535 9.54006 17.3573C9.84826 18.1277 10.6261 18.6039 11.4525 18.5281C12.2787 18.4523 12.9569 17.8422 13.1195 17.0287C13.3381 15.9362 13.5519 14.8672 13.6923 14.1652C13.7417 13.9178 13.9351 13.7245 14.1825 13.6751L17.0459 13.1025C17.8595 12.9397 18.4693 12.2615 18.5453 11.4353C18.6211 10.6089 18.1449 9.83105 17.3745 9.52285L8.37926 5.92485C7.68286 5.64625 6.88746 5.80945 6.35706 6.33985C5.82666 6.87025 5.66346 7.66565 5.94206 8.36205ZM7.10266 7.89785C7.00966 7.66565 7.06406 7.40045 7.24086 7.22385C7.41766 7.04705 7.68286 6.99245 7.91506 7.08545L16.9101 10.6835C17.1671 10.7863 17.3257 11.0455 17.3005 11.3209C17.2751 11.5963 17.0719 11.8225 16.8007 11.8767L13.9373 12.4493C13.1951 12.5977 12.6149 13.1779 12.4665 13.9202C12.3261 14.6222 12.1123 15.6913 11.8939 16.7835C11.8397 17.0547 11.6135 17.2581 11.3381 17.2833C11.0627 17.3085 10.8035 17.1498 10.7007 16.8931L7.10266 7.89785Z" fill="white"/>
<path fill-rule="evenodd" clip-rule="evenodd" d="M5.11027 4.20929L4.22647 3.32549C3.98247 3.08149 3.58647 3.08149 3.34267 3.32549C3.09867 3.56929 3.09867 3.96549 3.34267 4.20929L4.22647 5.09329C4.47047 5.33709 4.86647 5.33709 5.11027 5.09329C5.35427 4.84929 5.35427 4.45329 5.11027 4.20929Z" fill="white"/>
<path fill-rule="evenodd" clip-rule="evenodd" d="M11.9693 11.0681L9.94632 9.04527C9.70252 8.80127 9.30632 8.80127 9.06252 9.04527C8.81852 9.28907 8.81852 9.68527 9.06252 9.92907L11.0853 11.9521C11.3293 12.1959 11.7253 12.1959 11.9693 11.9521C12.2131 11.7081 12.2131 11.3121 11.9693 11.0681Z" fill="white"/>
<path fill-rule="evenodd" clip-rule="evenodd" d="M11.498 5.09329L12.382 4.20929C12.6258 3.96549 12.6258 3.56929 12.382 3.32549C12.138 3.08149 11.742 3.08149 11.498 3.32549L10.6142 4.20929C10.3702 4.45329 10.3702 4.84929 10.6142 5.09329C10.858 5.33709 11.2542 5.33709 11.498 5.09329Z" fill="white"/>
<path fill-rule="evenodd" clip-rule="evenodd" d="M3.8793 12.7117L4.7633 11.8279C5.0071 11.5839 5.0071 11.1879 4.7633 10.9441C4.5193 10.7001 4.1233 10.7001 3.8793 10.9441L2.9955 11.8279C2.7515 12.0719 2.7515 12.4679 2.9955 12.7117C3.2393 12.9557 3.6355 12.9557 3.8793 12.7117Z" fill="white"/>
<path fill-rule="evenodd" clip-rule="evenodd" d="M3.34546 7.22006H2.09546C1.75046 7.22006 1.47046 7.50006 1.47046 7.84506C1.47046 8.18986 1.75046 8.47006 2.09546 8.47006H3.34546C3.69046 8.47006 3.97046 8.18986 3.97046 7.84506C3.97046 7.50006 3.69046 7.22006 3.34546 7.22006Z" fill="white"/>
<path fill-rule="evenodd" clip-rule="evenodd" d="M8.4873 3.41028V2.16028C8.4873 1.81548 8.2071 1.53528 7.8623 1.53528C7.5173 1.53528 7.2373 1.81548 7.2373 2.16028V3.41028C7.2373 3.75528 7.5173 4.03528 7.8623 4.03528C8.2071 4.03528 8.4873 3.75528 8.4873 3.41028Z" fill="white"/>
</svg>
