<svg width="19" height="19" viewBox="0 0 19 19" fill="none" xmlns="http://www.w3.org/2000/svg">
<path d="M7.29709 17.7408H2.58929C1.54928 17.7408 0.706177 16.8977 0.706177 15.8577V9.54636C0.706177 9.06453 0.890867 8.60103 1.22224 8.25125L7.81315 1.29418C8.5559 0.510165 9.8045 0.510164 10.5473 1.29418L17.1382 8.25125C17.4695 8.60104 17.6542 9.06453 17.6542 9.54636V15.8577C17.6542 16.8977 16.8111 17.7408 15.7711 17.7408H11.0633M7.29709 17.7408V12.5622C7.29709 12.3022 7.50786 12.0914 7.76786 12.0914H10.5925C10.8525 12.0914 11.0633 12.3022 11.0633 12.5622V17.7408M7.29709 17.7408H11.0633" stroke="white" stroke-width="1.41234"/>
</svg>
