<svg width="12" height="12" viewBox="0 0 12 12" fill="none" xmlns="http://www.w3.org/2000/svg">
<g clip-path="url(#clip0_2_7305)">
<path fill-rule="evenodd" clip-rule="evenodd" d="M5.22737 5.44705H11.2832C11.4981 5.44705 11.6723 5.62124 11.6723 5.83613C11.6723 6.05102 11.4981 6.22521 11.2832 6.22521H5.22735C5.05546 6.87605 4.46275 7.35594 3.75787 7.35594C3.05245 7.35594 2.45934 6.8753 2.28799 6.22368L0.389083 6.22371C0.175038 6.22371 0.00152742 6.05017 0.00152742 5.83615C0.00152742 5.62211 0.175038 5.4486 0.389083 5.4486L2.28799 5.44857C2.45934 4.79693 3.05245 4.3163 3.75787 4.3163C4.46277 4.3163 5.05548 4.79618 5.22737 5.44705ZM9.55559 1.13075H11.2832C11.4981 1.13075 11.6723 1.30494 11.6723 1.51983C11.6723 1.73472 11.4981 1.90892 11.2832 1.90892H9.55559C9.38372 2.55978 8.79099 3.03967 8.08612 3.03967C7.38124 3.03967 6.78851 2.55978 6.61664 1.90892H0.389083C0.174195 1.90892 0 1.7347 0 1.51983C0 1.30494 0.174195 1.13075 0.389083 1.13075H6.61664C6.78851 0.479885 7.38124 0 8.08612 0C8.79099 0 9.38372 0.479885 9.55559 1.13075ZM6.3061 11.6723C5.6012 11.6723 5.00849 11.1924 4.8366 10.5415H0.389083C0.174195 10.5415 0 10.3673 0 10.1524C0 9.93754 0.174195 9.76334 0.389083 9.76334H4.83662C5.00852 9.11248 5.60122 8.63259 6.30612 8.63259C7.01099 8.63259 7.60372 9.11248 7.77559 9.76334H11.2832C11.4981 9.76334 11.6723 9.93754 11.6723 10.1524C11.6723 10.3673 11.4981 10.5415 11.2832 10.5415H7.77559C7.6037 11.1924 7.01097 11.6723 6.3061 11.6723Z" fill="white"/>
</g>
<defs>
<clipPath id="clip0_2_7305">
<rect width="11.6723" height="11.6723" fill="white"/>
</clipPath>
</defs>
</svg>
