<svg width="18" height="18" viewBox="0 0 18 18" fill="none" xmlns="http://www.w3.org/2000/svg">
<path d="M10.2 6.6H2.40005C2.24092 6.6 2.08831 6.53679 1.97578 6.42427C1.86326 6.31174 1.80005 6.15913 1.80005 6C1.80005 5.84087 1.86326 5.68826 1.97578 5.57574C2.08831 5.46322 2.24092 5.4 2.40005 5.4H10.2C10.3592 5.4 10.5118 5.46322 10.6243 5.57574C10.7368 5.68826 10.8 5.84087 10.8 6C10.8 6.15913 10.7368 6.31174 10.6243 6.42427C10.5118 6.53679 10.3592 6.6 10.2 6.6ZM15.6 6.6H13.2C13.0409 6.6 12.8883 6.53679 12.7758 6.42427C12.6633 6.31174 12.6 6.15913 12.6 6C12.6 5.84087 12.6633 5.68826 12.7758 5.57574C12.8883 5.46322 13.0409 5.4 13.2 5.4H15.6C15.7592 5.4 15.9118 5.46322 16.0243 5.57574C16.1368 5.68826 16.2 5.84087 16.2 6C16.2 6.15913 16.1368 6.31174 16.0243 6.42427C15.9118 6.53679 15.7592 6.6 15.6 6.6Z" fill="#3F3F3F"/>
<path d="M11.7 8.1C11.2847 8.1 10.8787 7.97684 10.5334 7.74609C10.188 7.51534 9.91885 7.18736 9.7599 6.80364C9.60096 6.41991 9.55937 5.99767 9.6404 5.59031C9.72143 5.18295 9.92143 4.80877 10.2151 4.51508C10.5088 4.22139 10.883 4.02138 11.2904 3.94035C11.6977 3.85932 12.12 3.90091 12.5037 4.05986C12.8874 4.2188 13.2154 4.48796 13.4461 4.8333C13.6769 5.17865 13.8 5.58466 13.8 6C13.8 6.55696 13.5788 7.0911 13.185 7.48493C12.7911 7.87875 12.257 8.1 11.7 8.1ZM11.7 5.1C11.522 5.1 11.348 5.15279 11.2 5.25168C11.052 5.35057 10.9367 5.49113 10.8686 5.65559C10.8004 5.82004 10.7826 6.001 10.8173 6.17558C10.8521 6.35017 10.9378 6.51053 11.0637 6.6364C11.1895 6.76227 11.3499 6.84798 11.5245 6.88271C11.699 6.91744 11.88 6.89961 12.0445 6.83149C12.2089 6.76338 12.3495 6.64802 12.4484 6.50002C12.5473 6.35201 12.6 6.17801 12.6 6C12.6 5.76131 12.5052 5.53239 12.3364 5.36361C12.1677 5.19482 11.9387 5.1 11.7 5.1ZM15.6 12.6H7.80005C7.64092 12.6 7.48831 12.5368 7.37578 12.4243C7.26326 12.3117 7.20005 12.1591 7.20005 12C7.20005 11.8409 7.26326 11.6883 7.37578 11.5757C7.48831 11.4632 7.64092 11.4 7.80005 11.4H15.6C15.7592 11.4 15.9118 11.4632 16.0243 11.5757C16.1368 11.6883 16.2 11.8409 16.2 12C16.2 12.1591 16.1368 12.3117 16.0243 12.4243C15.9118 12.5368 15.7592 12.6 15.6 12.6ZM4.80005 12.6H2.40005C2.24092 12.6 2.08831 12.5368 1.97578 12.4243C1.86326 12.3117 1.80005 12.1591 1.80005 12C1.80005 11.8409 1.86326 11.6883 1.97578 11.5757C2.08831 11.4632 2.24092 11.4 2.40005 11.4H4.80005C4.95918 11.4 5.11179 11.4632 5.22431 11.5757C5.33683 11.6883 5.40005 11.8409 5.40005 12C5.40005 12.1591 5.33683 12.3117 5.22431 12.4243C5.11179 12.5368 4.95918 12.6 4.80005 12.6Z" fill="#3F3F3F"/>
<path d="M6.29995 14.1C5.88461 14.1 5.4786 13.9768 5.13325 13.7461C4.78791 13.5153 4.51875 13.1874 4.35981 12.8036C4.20086 12.4199 4.15927 11.9977 4.2403 11.5903C4.32133 11.183 4.52134 10.8088 4.81503 10.5151C5.10872 10.2214 5.4829 10.0214 5.89026 9.94035C6.29762 9.85932 6.71986 9.90091 7.10359 10.0599C7.48731 10.2188 7.81529 10.488 8.04604 10.8333C8.27679 11.1786 8.39995 11.5847 8.39995 12C8.39995 12.557 8.1787 13.0911 7.78488 13.4849C7.39105 13.8788 6.85691 14.1 6.29995 14.1ZM6.29995 11.1C6.12195 11.1 5.94794 11.1528 5.79994 11.2517C5.65193 11.3506 5.53658 11.4911 5.46846 11.6556C5.40034 11.82 5.38252 12.001 5.41725 12.1756C5.45197 12.3502 5.53769 12.5105 5.66356 12.6364C5.78942 12.7623 5.94979 12.848 6.12437 12.8827C6.29895 12.9174 6.47991 12.8996 6.64437 12.8315C6.80882 12.7634 6.94938 12.648 7.04827 12.5C7.14717 12.352 7.19995 12.178 7.19995 12C7.19995 11.7613 7.10513 11.5324 6.93635 11.3636C6.76757 11.1948 6.53865 11.1 6.29995 11.1Z" fill="#3F3F3F"/>
</svg>
