<svg width="22" height="22" viewBox="0 0 22 22" fill="none" xmlns="http://www.w3.org/2000/svg">
<path d="M17.875 6.875H4.125C3.39565 6.875 2.69618 6.58527 2.18046 6.06954C1.66473 5.55382 1.375 4.85435 1.375 4.125C1.375 3.39565 1.66473 2.69618 2.18046 2.18046C2.69618 1.66473 3.39565 1.375 4.125 1.375H17.875C18.6043 1.375 19.3038 1.66473 19.8195 2.18046C20.3353 2.69618 20.625 3.39565 20.625 4.125C20.625 4.85435 20.3353 5.55382 19.8195 6.06954C19.3038 6.58527 18.6043 6.875 17.875 6.875ZM4.125 2.75C3.76033 2.75 3.41059 2.89487 3.15273 3.15273C2.89487 3.41059 2.75 3.76033 2.75 4.125C2.75 4.48967 2.89487 4.83941 3.15273 5.09727C3.41059 5.35513 3.76033 5.5 4.125 5.5H17.875C18.2397 5.5 18.5894 5.35513 18.8473 5.09727C19.1051 4.83941 19.25 4.48967 19.25 4.125C19.25 3.76033 19.1051 3.41059 18.8473 3.15273C18.5894 2.89487 18.2397 2.75 17.875 2.75H4.125Z" fill="white"/>
<path d="M8.9375 20.625C8.75516 20.625 8.5803 20.5526 8.45136 20.4236C8.32243 20.2947 8.25 20.1198 8.25 19.9375V14.4375C8.25 14.2552 8.32243 14.0803 8.45136 13.9514C8.5803 13.8224 8.75516 13.75 8.9375 13.75H13.0625C13.2448 13.75 13.4197 13.8224 13.5486 13.9514C13.6776 14.0803 13.75 14.2552 13.75 14.4375V18.5625C13.75 18.7068 13.7046 18.8474 13.6203 18.9645C13.5359 19.0815 13.4169 19.1691 13.28 19.2147L9.15502 20.5897C9.08486 20.613 9.01143 20.6249 8.9375 20.625ZM9.625 15.125V18.9838L12.375 18.067V15.125H9.625Z" fill="white"/>
<path d="M13.0625 15.125H8.9375C8.81731 15.1249 8.69922 15.0934 8.59498 15.0336C8.49074 14.9738 8.40397 14.8877 8.3433 14.7839L3.5308 6.53393C3.46984 6.42944 3.43753 6.31071 3.43714 6.18973C3.43674 6.06876 3.46828 5.94982 3.52856 5.84493C3.58884 5.74004 3.67573 5.65292 3.78045 5.59236C3.88518 5.53179 4.00403 5.49994 4.125 5.5H17.875C17.996 5.49994 18.1148 5.53179 18.2196 5.59236C18.3243 5.65292 18.4112 5.74004 18.4714 5.84493C18.5317 5.94982 18.5633 6.06876 18.5629 6.18973C18.5625 6.31071 18.5302 6.42944 18.4692 6.53393L13.6567 14.7839C13.596 14.8877 13.5093 14.9738 13.405 15.0336C13.3008 15.0934 13.1827 15.1249 13.0625 15.125ZM9.33227 13.75H12.6677L16.6779 6.875H5.32208L9.33227 13.75Z" fill="white"/>
</svg>
