<svg width="17" height="17" viewBox="0 0 17 17" fill="none" xmlns="http://www.w3.org/2000/svg">
<g clip-path="url(#clip0_2_7768)">
<path d="M13.3131 10.2868V7.41915C13.3131 5.37968 12.1193 3.55019 10.2624 2.72669V2.08158C10.2624 0.933471 9.32833 0 8.18081 0C7.03328 0 6.09922 0.934061 6.09922 2.08158V2.72728C4.24282 3.55138 3.04967 5.38027 3.04967 7.41915V10.2868L0.873357 13.1849C0.745866 13.3545 0.725383 13.5779 0.820706 13.768C0.915471 13.9581 1.10671 14.0762 1.31902 14.0762H5.40321C5.6658 15.3904 6.8344 16.3637 8.18136 16.3637C9.52833 16.3637 10.6969 15.3904 10.9595 14.0762H15.0449C15.2572 14.0762 15.4479 13.9581 15.5432 13.768C15.638 13.5779 15.6181 13.3545 15.4906 13.1849L13.3131 10.2868ZM8.18021 15.2501C7.43391 15.2501 6.77594 14.7675 6.54081 14.0756H9.81906C9.58449 14.7675 8.92652 15.2501 8.18021 15.2501ZM12.3112 10.8067L13.9295 12.9626H2.43263L4.05099 10.8067C4.12294 10.7108 4.16269 10.5921 4.16269 10.4722V7.41856C4.16269 5.20246 5.96527 3.39989 8.18136 3.39989C10.3975 3.39989 12.2 5.20246 12.2 7.41856V10.4722C12.1995 10.5921 12.2393 10.7108 12.3112 10.8067ZM8.18021 1.11243C8.71421 1.11243 9.14877 1.547 9.14877 2.08099V2.37812C8.51302 2.25706 7.84799 2.25706 7.21224 2.37812V2.08099C7.21224 1.547 7.64622 1.11243 8.18021 1.11243Z" fill="white"/>
</g>
<defs>
<clipPath id="clip0_2_7768">
<rect width="16.3636" height="16.3636" fill="white"/>
</clipPath>
</defs>
</svg>
