<svg width="13" height="13" viewBox="0 0 13 13" fill="none" xmlns="http://www.w3.org/2000/svg">
<path fill-rule="evenodd" clip-rule="evenodd" d="M10.6332 9.44946H9.96117L9.72299 9.21752C10.5566 8.23821 11.0585 6.96683 11.0585 5.58377C11.0585 2.49981 8.58311 0 5.52926 0C2.47541 0 0 2.49981 0 5.58377C0 8.66773 2.47541 11.1675 5.52926 11.1675C6.89881 11.1675 8.15779 10.6607 9.12753 9.81885L9.35721 10.0594V10.738L11.5835 12.851L12.851 11.571L10.6332 9.44946ZM5.52887 9.44903C3.41074 9.44903 1.70092 7.72235 1.70092 5.58334C1.70092 3.44432 3.41074 1.71765 5.52887 1.71765C7.647 1.71765 9.35682 3.44432 9.35682 5.58334C9.35682 7.72235 7.647 9.44903 5.52887 9.44903Z" fill="#838383"/>
</svg>
